<svg width="52" height="52" viewBox="0 0 52 52" fill="none" xmlns="http://www.w3.org/2000/svg">
<path fill-rule="evenodd" clip-rule="evenodd" d="M52 26C52 40.3594 40.3594 52 26 52C11.6406 52 0 40.3594 0 26C0 11.6406 11.6406 0 26 0C40.3594 0 52 11.6406 52 26ZM49.2789 26.0001C49.2789 38.8552 38.8578 49.2763 26.0028 49.2763L26.0028 46.7999C26.0029 46.7999 26.003 46.7999 26.0031 46.7999C37.4906 46.7999 46.8031 37.4875 46.8031 26C46.8031 14.5124 37.4906 5.19995 26.0031 5.19995C26.003 5.19995 26.0029 5.19995 26.0028 5.19995V2.72388C38.8578 2.72388 49.2789 13.145 49.2789 26.0001ZM26.0028 2.72388C19.5975 2.72388 13.7966 5.3111 9.58792 9.49751C13.9488 5.15978 19.8502 2.72388 26.0028 2.72388ZM9.5002 9.58523C5.31378 13.7939 2.72656 19.5948 2.72656 26.0001C2.72656 32.4053 5.31378 38.2063 9.5002 42.4149C5.16247 38.054 2.72656 32.1526 2.72656 26.0001C2.72656 19.8475 5.16247 13.9461 9.5002 9.58523ZM26.0028 43.581C26.0028 43.581 26.0028 43.581 26.0028 43.581C35.7125 43.581 43.5838 35.7097 43.5838 26C43.5838 16.2903 35.7125 8.41907 26.0028 8.41907C26.0028 8.41907 26.0028 8.41907 26.0028 8.41907V10.8953C26.0029 10.8953 26.0031 10.8953 26.0032 10.8953C34.3453 10.8953 41.108 17.6579 41.108 26C41.108 34.3422 34.3453 41.1048 26.0032 41.1048C26.0031 41.1048 26.0029 41.1048 26.0028 41.1048L26.0028 43.581ZM26.0028 37.6381C32.4279 37.6353 37.6356 32.4258 37.6356 26C37.6356 19.5743 32.4279 14.3648 26.0028 14.3619V26.0001L26.0028 37.6381ZM9.58792 42.5026C13.9488 46.8404 19.8502 49.2763 26.0028 49.2763C19.5975 49.2763 13.7966 46.689 9.58792 42.5026Z" fill="#D2D2D2"/>
</svg>
