<?xml version="1.0" encoding="utf-8"?>
<!-- Generator: Adobe Illustrator 26.3.1, SVG Export Plug-In . SVG Version: 6.00 Build 0)  -->
<svg version="1.1" id="Ebene-1" xmlns="http://www.w3.org/2000/svg" xmlns:xlink="http://www.w3.org/1999/xlink" x="0px" y="0px"
	 viewBox="0 0 70 70" style="enable-background:new 0 0 70 70;" xml:space="preserve">
<style type="text/css">
	.st0{fill:none;stroke:#000000;stroke-width:2;}
</style>
<circle class="st0" cx="35" cy="35" r="31.6"/>
<path class="st0" d="M34,58.1c0.2,0,0.5,0,0.7,0c13,0,23.5-10.5,23.5-23.5S47.6,11.1,34.6,11.1c-0.2,0-0.5,0-0.7,0"/>
<path class="st0" d="M34,50.3c0.4,0,0.7,0,1,0c8.5,0,15.3-6.9,15.3-15.3c0-8.5-6.9-15.4-15.3-15.4c-0.4,0-0.7,0-1,0"/>
<path class="st0" d="M34,41.8c0.2,0,0.5,0,0.7,0c3.9,0,7.2-3.2,7.2-7.2c0-3.9-3.2-7.2-7.2-7.2c-0.2,0-0.5,0-0.7,0"/>
</svg>
