<svg width="167" height="161" viewBox="0 0 167 161" fill="none" xmlns="http://www.w3.org/2000/svg">
<path d="M0 158.831V138.086H25.7155V20.7453H0V0H75.6338V20.7453H49.9183V138.086H75.6338V158.831H0Z" fill="#262626"/>
<path d="M145.865 160.56C142.984 160.56 140.175 160.128 137.437 159.263C134.7 158.399 132.323 157.03 130.306 155.157C128.289 153.14 126.849 150.763 125.984 148.026C125.264 145.145 124.904 142.336 124.904 139.598C124.904 136.717 125.264 133.908 125.984 131.171C126.849 128.433 128.289 126.056 130.306 124.039C132.323 122.022 134.7 120.582 137.437 119.717C140.175 118.853 142.984 118.421 145.865 118.421C148.746 118.421 151.556 118.853 154.293 119.717C157.03 120.582 159.407 122.022 161.424 124.039C163.441 126.056 164.81 128.433 165.53 131.171C166.394 133.908 166.827 136.717 166.827 139.598C166.827 142.336 166.394 145.145 165.53 148.026C164.81 150.763 163.441 153.14 161.424 155.157C159.407 157.03 157.03 158.399 154.293 159.263C151.556 160.128 148.746 160.56 145.865 160.56Z" fill="#262626"/>
</svg>
