<svg width="255" height="161" viewBox="0 0 255 161" fill="none" xmlns="http://www.w3.org/2000/svg">
<path d="M0 158.831V138.086H25.7155V20.7452H0V0H75.6338V20.7452H49.9183V138.086H75.6338V158.831H0Z" fill="#951FCC"/>
<path d="M9.79639 158.831V138.086H35.5119V20.7452H9.79639V0H85.4302V20.7452H59.7147V138.086H85.4302V158.831H9.79639Z" fill="#D90090"/>
<path d="M19.5942 158.831V138.086H45.3097V20.7452H19.5942V0H95.228V20.7452H69.5125V138.086H95.228V158.831H19.5942Z" fill="#D91200"/>
<path d="M29.3911 158.831V138.086H55.1066V20.7452H29.3911V0H105.025V20.7452H79.3094V138.086H105.025V158.831H29.3911Z" fill="#F37A00"/>
<path d="M39.189 158.831V138.086H64.9044V20.7452H39.189V0H114.823V20.7452H89.1073V138.086H114.823V158.831H39.189Z" fill="#FFC800"/>
<path d="M48.9854 158.831V138.086H74.7008V20.7452H48.9854V0H124.619V20.7452H98.9036V138.086H124.619V158.831H48.9854Z" fill="#76CD1F"/>
<path d="M58.7822 158.831V138.086H84.4977V20.7452H58.7822V0H134.416V20.7452H108.701V138.086H134.416V158.831H58.7822Z" fill="#0BC2E6"/>
<path d="M68.5801 158.831V138.086H94.2956V20.7452H68.5801V0H144.214V20.7452H118.498V138.086H144.214V158.831H68.5801Z" fill="#193CA6"/>
<path d="M78.3765 158.831V138.086H104.092V20.7452H78.3765V0H154.01V20.7452H128.295V138.086H154.01V158.831H78.3765Z" fill="white"/>
<path d="M88.1733 158.831V138.086H113.889V20.7453H88.1733V0H163.807V20.7453H138.092V138.086H163.807V158.831H88.1733Z" fill="#262626"/>
<path d="M234.038 160.56C231.157 160.56 228.348 160.128 225.611 159.263C222.873 158.399 220.496 157.03 218.48 155.157C216.463 153.14 215.022 150.763 214.158 148.026C213.437 145.145 213.077 142.336 213.077 139.598C213.077 136.717 213.437 133.908 214.158 131.171C215.022 128.433 216.463 126.056 218.48 124.039C220.496 122.022 222.873 120.582 225.611 119.717C228.348 118.853 231.157 118.421 234.038 118.421C236.92 118.421 239.729 118.853 242.466 119.717C245.203 120.582 247.581 122.022 249.597 124.039C251.614 126.056 252.983 128.433 253.703 131.171C254.568 133.908 255 136.717 255 139.598C255 142.336 254.568 145.145 253.703 148.026C252.983 150.763 251.614 153.14 249.597 155.157C247.581 157.03 245.203 158.399 242.466 159.263C239.729 160.128 236.92 160.56 234.038 160.56Z" fill="#262626"/>
</svg>
