<svg width="176" height="24" viewBox="0 0 176 24" fill="none" xmlns="http://www.w3.org/2000/svg">
<path d="M0.325012 23V20.024H4.01401V3.191H0.325012V0.214996H11.175V3.191H7.48601V20.024H11.175V23H0.325012Z" fill="#951FCC"/>
<path d="M3.72504 23V20.024H7.41404V3.191H3.72504V0.214996H14.575V3.191H10.886V20.024H14.575V23H3.72504Z" fill="#D90090"/>
<path d="M7.125 23V20.024H10.814V3.191H7.125V0.214996H17.975V3.191H14.286V20.024H17.975V23H7.125Z" fill="#D91200"/>
<path d="M10.525 23V20.024H14.214V3.191H10.525V0.214996H21.375V3.191H17.686V20.024H21.375V23H10.525Z" fill="#F37A00"/>
<path d="M13.925 23V20.024H17.614V3.191H13.925V0.214996H24.775V3.191H21.086V20.024H24.775V23H13.925Z" fill="#FFC800"/>
<path d="M17.325 23V20.024H21.014V3.191H17.325V0.214996H28.175V3.191H24.486V20.024H28.175V23H17.325Z" fill="#76CD1F"/>
<path d="M20.725 23V20.024H24.414V3.191H20.725V0.214996H31.575V3.191H27.886V20.024H31.575V23H20.725Z" fill="#0BC2E6"/>
<path d="M24.125 23V20.024H27.814V3.191H24.125V0.214996H34.975V3.191H31.286V20.024H34.975V23H24.125Z" fill="#193CA6"/>
<path d="M27.525 23V20.024H31.214V3.191H27.525V0.214996H38.375V3.191H34.686V20.024H38.375V23H27.525Z" fill="#262626"/>
<path d="M42.529 23V0.214996H45.846L51.581 17.203C51.581 17.1203 51.5707 17.048 51.55 16.986C51.55 16.9033 51.5397 16.8207 51.519 16.738L51.364 15.591C51.2194 14.5577 51.1057 13.5243 51.023 12.491C50.961 11.437 50.93 10.383 50.93 9.329V0.214996H54.371V23H51.054L45.319 6.012C45.319 6.09466 45.319 6.17733 45.319 6.26C45.3397 6.322 45.3604 6.39433 45.381 6.477L45.536 7.624C45.6807 8.65733 45.784 9.701 45.846 10.755C45.9287 11.7883 45.97 12.832 45.97 13.886V23H42.529Z" fill="#262626"/>
<path d="M58.029 23V0.214996H62.865C63.5057 0.214996 64.136 0.266663 64.756 0.369996C65.3967 0.473329 66.0064 0.65933 66.585 0.927997C67.1637 1.19666 67.6907 1.55833 68.166 2.013C68.6414 2.447 69.0237 2.95333 69.313 3.532C69.623 4.09 69.8297 4.68933 69.933 5.33C70.057 5.95 70.119 6.58033 70.119 7.221V15.994C70.119 16.6347 70.057 17.2753 69.933 17.916C69.8297 18.536 69.623 19.1353 69.313 19.714C69.0237 20.272 68.6414 20.7783 68.166 21.233C67.6907 21.667 67.1637 22.0183 66.585 22.287C66.0064 22.5557 65.3967 22.7417 64.756 22.845C64.136 22.9483 63.5057 23 62.865 23H58.029ZM61.47 20.024H62.865C63.2164 20.024 63.5677 19.993 63.919 19.931C64.2704 19.8483 64.5907 19.7243 64.88 19.559C65.19 19.3937 65.4587 19.187 65.686 18.939C65.934 18.6703 66.1304 18.381 66.275 18.071C66.4197 17.7403 66.523 17.3993 66.585 17.048C66.647 16.6967 66.678 16.3453 66.678 15.994V7.221C66.678 6.86966 66.647 6.51833 66.585 6.167C66.523 5.81566 66.4197 5.485 66.275 5.175C66.1304 4.84433 65.934 4.555 65.686 4.307C65.4587 4.03833 65.19 3.82133 64.88 3.656C64.5907 3.49066 64.2704 3.377 63.919 3.315C63.5677 3.23233 63.2164 3.191 62.865 3.191H61.47V20.024Z" fill="#262626"/>
<path d="M77.714 23V13.731L72.63 0.214996H76.288L79.45 9.174L82.612 0.214996H86.27L81.186 13.731V23H77.714Z" fill="#262626"/>
<path d="M88.409 23V0.214996H91.726L94.95 12.181L98.174 0.214996H101.491V23H98.019V18.443C98.019 17.3477 98.0397 16.2523 98.081 15.157C98.143 14.0617 98.2154 12.9767 98.298 11.902C98.4014 10.8067 98.5047 9.71133 98.608 8.616C98.732 7.52066 98.8354 6.42533 98.918 5.33L96.004 16.149H93.896L90.982 5.33C91.0647 6.42533 91.1577 7.52066 91.261 8.616C91.385 9.71133 91.4884 10.8067 91.571 11.902C91.6744 12.9767 91.7467 14.0617 91.788 15.157C91.85 16.2523 91.881 17.3477 91.881 18.443V23H88.409Z" fill="#262626"/>
<path d="M104.777 23V0.214996H116.371V3.191H108.218V9.67H114.604V12.646H108.218V20.024H116.371V23H104.777Z" fill="#262626"/>
<path d="M120.029 23V0.214996H124.865C125.506 0.214996 126.136 0.266663 126.756 0.369996C127.397 0.473329 128.006 0.65933 128.585 0.927997C129.164 1.19666 129.691 1.55833 130.166 2.013C130.641 2.447 131.024 2.95333 131.313 3.532C131.623 4.09 131.83 4.68933 131.933 5.33C132.057 5.95 132.119 6.58033 132.119 7.221V15.994C132.119 16.6347 132.057 17.2753 131.933 17.916C131.83 18.536 131.623 19.1353 131.313 19.714C131.024 20.272 130.641 20.7783 130.166 21.233C129.691 21.667 129.164 22.0183 128.585 22.287C128.006 22.5557 127.397 22.7417 126.756 22.845C126.136 22.9483 125.506 23 124.865 23H120.029ZM123.47 20.024H124.865C125.216 20.024 125.568 19.993 125.919 19.931C126.27 19.8483 126.591 19.7243 126.88 19.559C127.19 19.3937 127.459 19.187 127.686 18.939C127.934 18.6703 128.13 18.381 128.275 18.071C128.42 17.7403 128.523 17.3993 128.585 17.048C128.647 16.6967 128.678 16.3453 128.678 15.994V7.221C128.678 6.86966 128.647 6.51833 128.585 6.167C128.523 5.81566 128.42 5.485 128.275 5.175C128.13 4.84433 127.934 4.555 127.686 4.307C127.459 4.03833 127.19 3.82133 126.88 3.656C126.591 3.49066 126.27 3.377 125.919 3.315C125.568 3.23233 125.216 3.191 124.865 3.191H123.47V20.024Z" fill="#262626"/>
<path d="M136.025 23V20.024H139.714V3.191H136.025V0.214996H146.875V3.191H143.186V20.024H146.875V23H136.025Z" fill="#262626"/>
<path d="M150.347 23L154.966 0.214996H158.934L163.553 23H160.019L159.089 17.916H154.811L153.881 23H150.347ZM158.562 14.94L157.26 7.81C157.219 7.52066 157.167 7.23133 157.105 6.942C157.064 6.632 157.012 6.33233 156.95 6.043C156.888 6.33233 156.826 6.632 156.764 6.942C156.723 7.23133 156.681 7.52066 156.64 7.81L155.338 14.94H158.562Z" fill="#262626"/>
<path d="M172.45 23.248C172.037 23.248 171.634 23.186 171.241 23.062C170.848 22.938 170.507 22.7417 170.218 22.473C169.929 22.1837 169.722 21.8427 169.598 21.45C169.495 21.0367 169.443 20.6337 169.443 20.241C169.443 19.8277 169.495 19.4247 169.598 19.032C169.722 18.6393 169.929 18.2983 170.218 18.009C170.507 17.7197 170.848 17.513 171.241 17.389C171.634 17.265 172.037 17.203 172.45 17.203C172.863 17.203 173.266 17.265 173.659 17.389C174.052 17.513 174.393 17.7197 174.682 18.009C174.971 18.2983 175.168 18.6393 175.271 19.032C175.395 19.4247 175.457 19.8277 175.457 20.241C175.457 20.6337 175.395 21.0367 175.271 21.45C175.168 21.8427 174.971 22.1837 174.682 22.473C174.393 22.7417 174.052 22.938 173.659 23.062C173.266 23.186 172.863 23.248 172.45 23.248Z" fill="#262626"/>
</svg>
