<svg width="31" height="31" viewBox="0 0 31 31" fill="none" xmlns="http://www.w3.org/2000/svg">
<path d="M7.62639 10.6991L7.86374 10.259L7.18126 9.89091L7.12759 10.6645L7.62639 10.6991ZM17.4983 10.6991L17.9968 10.6606L17.9365 9.87912L17.2532 10.2632L17.4983 10.6991ZM11.3509 8.02906L11.4631 7.54181L10.4568 7.31009L10.8991 8.24322L11.3509 8.02906ZM19.1616 5.0343L19.6256 4.84805L19.0998 3.538L18.6838 4.88696L19.1616 5.0343ZM20.4272 21.5957L20.2039 21.1481L20.1923 21.1543L20.4272 21.5957ZM7.38903 11.1392C7.86026 11.3933 8.67158 11.7657 9.60397 12.0756C10.5319 12.384 11.6144 12.6423 12.6166 12.6423V11.6423C11.7673 11.6423 10.8007 11.4196 9.91938 11.1266C9.04253 10.8352 8.28448 10.4859 7.86374 10.259L7.38903 11.1392ZM12.6166 12.6423C13.6197 12.6423 14.6849 12.3836 15.5921 12.0744C16.5031 11.7638 17.2887 11.3905 17.7433 11.1349L17.2532 10.2632C16.852 10.4888 16.1224 10.8371 15.2694 11.1279C14.4126 11.4199 13.4649 11.6423 12.6166 11.6423V12.6423ZM16.9997 10.7375C17.1784 13.0545 17.1493 16.5177 16.4955 19.3827C16.168 20.8177 15.6931 22.0601 15.0429 22.9331C14.4041 23.7906 13.6164 24.2708 12.6166 24.2708V25.2708C14.0033 25.2708 15.0643 24.5784 15.8449 23.5304C16.6139 22.4978 17.1289 21.1018 17.4704 19.6052C18.1546 16.6069 18.1798 13.0342 17.9968 10.6606L16.9997 10.7375ZM12.6166 24.2708C11.6162 24.2708 10.8233 23.7901 10.1769 22.9311C9.51931 22.0573 9.03465 20.8142 8.69612 19.3791C8.0202 16.5139 7.96443 13.0506 8.12519 10.7337L7.12759 10.6645C6.96289 13.0381 7.0156 16.6107 7.72283 19.6087C8.07587 21.1053 8.60146 22.5007 9.37787 23.5324C10.1654 24.5789 11.2303 25.2708 12.6166 25.2708V24.2708ZM13.0684 10.4849L11.8027 7.81489L10.8991 8.24322L12.1647 10.9132L13.0684 10.4849ZM11.2387 8.51631C11.7385 8.6314 12.5809 8.76546 13.5196 8.80464C14.4537 8.84364 15.5207 8.79045 16.4505 8.50739L16.1593 7.55073C15.3824 7.78723 14.4424 7.84229 13.5613 7.80551C12.6847 7.76892 11.9035 7.6432 11.4631 7.54181L11.2387 8.51631ZM16.4505 8.50739C17.427 8.21013 18.1594 7.58223 18.6727 6.94311C19.1843 6.3062 19.5009 5.63075 19.6394 5.18164L18.6838 4.88696C18.5812 5.21962 18.3229 5.78176 17.8931 6.31689C17.465 6.84982 16.8896 7.32841 16.1593 7.55073L16.4505 8.50739ZM18.6976 5.22055C19.6476 7.58734 20.8471 11.2424 21.3644 14.5125C21.6236 16.1509 21.7058 17.6581 21.5184 18.8465C21.3297 20.0433 20.8886 20.8067 20.204 21.1483L20.6505 22.0431C21.7594 21.4898 22.2965 20.3325 22.5062 19.0023C22.7173 17.6638 22.6182 16.0377 22.3522 14.3563C21.8191 10.9869 20.5922 7.25604 19.6256 4.84805L18.6976 5.22055ZM20.1923 21.1543C18.5904 22.0067 17.9754 21.4112 17.916 21.3209L17.0805 21.8704C17.5273 22.5498 18.7926 23.0319 20.6621 22.0371L20.1923 21.1543ZM10.2881 20.9007C10.467 21.2345 10.7811 21.7323 11.1539 22.1545C11.3403 22.3656 11.554 22.5723 11.7853 22.7296C12.0116 22.8836 12.2971 23.019 12.6166 23.019V22.019C12.5784 22.019 12.4906 21.9999 12.3477 21.9027C12.2097 21.8089 12.0583 21.6679 11.9035 21.4926C11.5941 21.1422 11.3219 20.7128 11.1695 20.4284L10.2881 20.9007ZM12.6166 23.019C12.9288 23.019 13.2231 22.8887 13.4621 22.7437C13.7099 22.5934 13.9518 22.3943 14.1713 22.1875C14.6105 21.7737 15.0073 21.2837 15.242 20.9552L14.4282 20.3739C14.2214 20.6635 13.8664 21.1008 13.4856 21.4597C13.295 21.6392 13.1098 21.7878 12.9435 21.8887C12.7685 21.9948 12.6619 22.019 12.6166 22.019V23.019Z" fill="#0BC2E6"/>
<circle cx="15.0342" cy="15.0342" r="14.5342" stroke="#0BC2E6"/>
</svg>
