<svg width="65" height="50" viewBox="0 0 65 50" fill="none" xmlns="http://www.w3.org/2000/svg">
<path d="M0 49.9999V36.9601C0 32.9999 0.700284 28.7982 2.10085 24.355C3.54972 19.8635 5.62642 15.5411 8.33097 11.3877C11.0838 7.18595 14.392 3.53964 18.2557 0.44873L27.5284 7.98282C24.4858 12.3294 21.8295 16.8692 19.5597 21.6021C17.3381 26.2868 16.2273 31.3095 16.2273 36.6703V49.9999H0ZM37.0909 49.9999V36.9601C37.0909 32.9999 37.7912 28.7982 39.1918 24.355C40.6406 19.8635 42.7173 15.5411 45.4219 11.3877C48.1747 7.18595 51.483 3.53964 55.3466 0.44873L64.6193 7.98282C61.5767 12.3294 58.9205 16.8692 56.6506 21.6021C54.429 26.2868 53.3182 31.3095 53.3182 36.6703V49.9999H37.0909Z" fill="#ffffff"/>
</svg>
